<svg xmlns="http://www.w3.org/2000/svg" viewBox="0 0 512 512">
  <defs>
    <radialGradient id="bg" cx="50%" cy="35%" r="70%">
      <stop offset="0%" stop-color="#12345f"/>
      <stop offset="65%" stop-color="#071a33"/>
      <stop offset="100%" stop-color="#020617"/>
    </radialGradient>
    <linearGradient id="gold" x1="0%" y1="0%" x2="100%" y2="100%">
      <stop offset="0%" stop-color="#fde68a"/>
      <stop offset="45%" stop-color="#facc15"/>
      <stop offset="100%" stop-color="#d97706"/>
    </linearGradient>
    <filter id="shadow" x="-20%" y="-20%" width="140%" height="140%">
      <feDropShadow dx="0" dy="8" stdDeviation="10" flood-color="#000000" flood-opacity="0.45"/>
    </filter>
  </defs>

  <rect width="512" height="512" rx="112" fill="url(#bg)"/>
  <rect x="22" y="22" width="468" height="468" rx="96" fill="none" stroke="url(#gold)" stroke-width="12"/>

  <g filter="url(#shadow)">
    <path d="M104 282 C118 180 176 112 256 112 C336 112 394 180 408 282 C374 248 328 232 256 232 C184 232 138 248 104 282Z" fill="#0f2a4a" stroke="#facc15" stroke-width="8"/>
    <path d="M132 182 C162 128 207 92 256 92 C305 92 350 128 380 182 C336 158 292 154 256 170 C220 154 176 158 132 182Z" fill="#1e3a5f" stroke="#f59e0b" stroke-width="7"/>
    <circle cx="190" cy="212" r="62" fill="#fff7ed" stroke="#facc15" stroke-width="10"/>
    <circle cx="322" cy="212" r="62" fill="#fff7ed" stroke="#facc15" stroke-width="10"/>
    <circle cx="190" cy="212" r="29" fill="#111827"/>
    <circle cx="322" cy="212" r="29" fill="#111827"/>
    <circle cx="178" cy="200" r="9" fill="#ffffff"/>
    <circle cx="310" cy="200" r="9" fill="#ffffff"/>
    <path d="M236 245 L256 272 L276 245 Z" fill="#f59e0b" stroke="#111827" stroke-width="6"/>
    <path d="M126 152 C91 164 71 187 58 219 C100 207 129 188 154 157Z" fill="#facc15" opacity="0.9"/>
    <path d="M386 152 C421 164 441 187 454 219 C412 207 383 188 358 157Z" fill="#facc15" opacity="0.9"/>
  </g>

  <g filter="url(#shadow)">
    <rect x="94" y="292" width="324" height="122" rx="28" fill="#020617" stroke="#facc15" stroke-width="6"/>
    <text x="256" y="350" text-anchor="middle" font-family="Arial, sans-serif" font-size="58" font-weight="900" fill="#f8fafc">DCA</text>
    <text x="256" y="397" text-anchor="middle" font-family="Arial, sans-serif" font-size="40" font-weight="900" fill="#facc15">折價獵人</text>
  </g>

  <g opacity="0.85">
    <path d="M75 320 L115 284 L153 300 L195 250" fill="none" stroke="#ef4444" stroke-width="12" stroke-linecap="round" stroke-linejoin="round"/>
    <path d="M317 300 L354 260 L382 277 L434 220" fill="none" stroke="#22c55e" stroke-width="12" stroke-linecap="round" stroke-linejoin="round"/>
  </g>
</svg>
